<?xml version="1.0" encoding="UTF-8" standalone="no"?>
<svg
   xmlns:dc="http://purl.org/dc/elements/1.1/"
   xmlns:cc="http://creativecommons.org/ns#"
   xmlns:rdf="http://www.w3.org/1999/02/22-rdf-syntax-ns#"
   xmlns:svg="http://www.w3.org/2000/svg"
   xmlns="http://www.w3.org/2000/svg"
   viewBox="0 0 433.65332 132.30667"
   height="132.30667"
   width="433.65332"
   xml:space="preserve"
   id="svg2"
   version="1.1"><metadata
     id="metadata8"><rdf:RDF><cc:Work
         rdf:about=""><dc:format>image/svg+xml</dc:format><dc:type
           rdf:resource="http://purl.org/dc/dcmitype/StillImage" /></cc:Work></rdf:RDF></metadata><defs
     id="defs6" /><g
     transform="matrix(1.3333333,0,0,-1.3333333,0,132.30667)"
     id="g10"><g
       transform="scale(0.1)"
       id="g12"><path
         id="path14"
         style="fill:#cfd9ee;fill-opacity:1;fill-rule:nonzero;stroke:none"
         d="m 62.0664,347.535 c 17.5234,-9.211 36.4297,-24.418 54.4536,-33.637 19.152,-9.796 34.894,-18.668 48.82,-30.878 21.019,-18.434 31.637,-26.079 63.215,-9.926 18.828,9.629 28.918,27.918 50.402,36.5 31.488,12.578 35.785,15.644 51.617,45.664 13.621,25.832 26.973,39.644 56.149,48.969 34.175,10.921 41.636,12.601 74.035,-0.446 28.629,-11.527 64.125,-28.047 96.387,-15.988 29.613,11.062 44.679,28.215 80.218,30.336 26.793,1.601 51.657,9.738 77.821,-1.113 22.246,-9.223 42.168,-23.426 64.781,-33.637 26.125,-11.797 46.109,-11.953 74.609,-11.25 10.035,0.246 18.473,1.047 25.824,2.418 L 882.008,5.01172 H 1.60938 L 0,365.41 c 2.35547,-1.078 4.76953,-2.094 7.30078,-2.984 17.78122,-6.25 37.70702,-5.922 54.76562,-14.891" /><path
         id="path16"
         style="fill:#8a81a4;fill-opacity:1;fill-rule:nonzero;stroke:none"
         d="M 880.398,606.109 V 772 c -38.476,10.504 -81.226,23.719 -113.261,18.953 -39.262,-5.844 -93.91,-39.648 -166.301,-41.371 C 564.574,748.719 461.332,716.645 443.074,711.98 407.512,702.895 373.176,688.941 340.84,672.727 270.023,637.215 198.586,630.289 112.777,620.148 89.8906,617.441 69.7461,616.859 50.8438,618.004 33.2148,619.066 16.668,621.656 0,625.426 V 432.023 c 1.58203,1.125 2.76953,2.063 3.0625,2.231 0,1.598 38.5156,10.125 50.7109,14.891 16.5469,6.464 47.6406,28.425 60.2816,36.945 28.722,19.359 29.937,25.098 63.804,30.949 101.133,1.094 329.383,1.324 371.774,1.902 51.629,0.707 158.965,4.11 154.285,8.411 -4.68,4.304 -73.855,4.777 -125.809,5.898 -51.961,1.121 -35,17.387 -154.695,11.48 -44.16,-2.179 -83.516,3.711 -116.656,12.051 24.332,6.129 51.613,9.078 79.535,8.91 39.418,-0.238 18.402,-3.238 56.844,5.594 15.605,3.586 28.984,6.848 43.406,10.449 45.945,11.477 90.465,21.883 142.289,20.707 13.055,-0.293 26.125,-0.613 39.137,-0.671 29.586,-1.711 74.383,-5.489 97.992,-4.188 9.281,0 19.269,0.402 29.699,1.051 11.676,0.441 23.856,1.152 34.137,2.703 16.66,1.523 33.789,3.273 50.601,4.773" /><path
         id="path18"
         style="fill:#76b4c9;fill-opacity:1;fill-rule:nonzero;stroke:none"
         d="m 31.0234,399.102 c 0.3868,0.054 0.7696,0.152 1.1563,0.191 0,-0.484 -1.7734,-0.398 -1.1563,-0.191 z M 832.109,601.555 c -0.765,-0.071 -1.55,-0.149 -2.312,-0.219 -10.281,-1.551 -22.461,-2.262 -34.137,-2.703 -0.332,-0.02 -0.637,-0.028 -0.965,-0.047 -3.843,-0.234 -7.59,-0.414 -11.293,-0.57 -1.183,-0.051 -2.406,-0.121 -3.574,-0.161 -4.754,-0.167 -9.398,-0.273 -13.859,-0.273 -0.004,0 -0.004,0 -0.008,0 -23.609,-1.301 -68.406,2.477 -97.992,4.188 -1.02,0.007 -2.047,0.046 -3.067,0.054 -12,0.09 -24.039,0.348 -36.07,0.617 -6.844,0.157 -13.547,0.086 -20.152,-0.14 -17.496,-0.594 -34.235,-2.449 -50.594,-5.086 -7.961,-1.281 -15.836,-2.746 -23.656,-4.356 -10.282,-2.109 -20.492,-4.425 -30.707,-6.89 -5.715,-1.383 -11.438,-2.801 -17.18,-4.235 -7.211,-1.8 -14.16,-3.515 -21.258,-5.23 -7.097,-1.715 -14.344,-3.426 -22.148,-5.219 -12.016,-2.762 -18.219,-4.363 -22.278,-5.258 -3.25,-0.714 -5.121,-0.976 -7.492,-1.011 -1.211,-0.02 -2.566,0.023 -4.285,0.093 -4.176,0.168 -10.578,0.508 -22.789,0.582 -0.039,0 -0.074,-0.003 -0.113,-0.003 -6.352,0.039 -12.657,-0.129 -18.914,-0.418 -1.95,-0.09 -3.875,-0.243 -5.813,-0.364 -4.402,-0.277 -8.773,-0.617 -13.098,-1.054 -2.117,-0.211 -4.214,-0.45 -6.304,-0.704 -4.289,-0.519 -8.516,-1.132 -12.696,-1.816 -1.824,-0.297 -3.664,-0.566 -5.46,-0.894 -5.614,-1.032 -11.133,-2.184 -16.489,-3.516 -0.211,-0.055 -0.429,-0.09 -0.636,-0.145 33.136,-8.336 72.488,-14.226 116.644,-12.047 119.695,5.911 102.738,-10.359 154.695,-11.48 51.954,-1.121 121.129,-1.594 125.809,-5.895 4.68,-4.304 -102.656,-7.707 -154.285,-8.414 -42.383,-0.578 -270.539,-0.808 -371.703,-1.902 -0.242,-0.043 -0.516,-0.086 -0.754,-0.125 -1.238,-0.219 -2.399,-0.437 -3.555,-0.652 -0.914,-0.176 -1.824,-0.348 -2.687,-0.524 -1.067,-0.211 -2.086,-0.429 -3.082,-0.644 -0.829,-0.184 -1.633,-0.364 -2.414,-0.547 -0.938,-0.223 -1.852,-0.445 -2.731,-0.668 -0.723,-0.188 -1.414,-0.379 -2.102,-0.57 -0.835,-0.231 -1.671,-0.465 -2.457,-0.707 -0.64,-0.196 -1.246,-0.399 -1.859,-0.602 -0.746,-0.25 -1.508,-0.496 -2.215,-0.754 -0.566,-0.203 -1.097,-0.426 -1.64,-0.641 -0.692,-0.269 -1.399,-0.535 -2.059,-0.82 -0.211,-0.09 -0.402,-0.191 -0.609,-0.281 -1.61,-0.715 -3.141,-1.481 -4.641,-2.289 -0.41,-0.223 -0.828,-0.434 -1.234,-0.664 -0.637,-0.363 -1.27,-0.75 -1.907,-1.133 -0.433,-0.266 -0.875,-0.523 -1.312,-0.797 -0.645,-0.406 -1.297,-0.836 -1.953,-1.266 -0.426,-0.281 -0.852,-0.558 -1.285,-0.851 -0.688,-0.465 -1.391,-0.945 -2.102,-1.441 -0.437,-0.305 -0.875,-0.61 -1.324,-0.926 -0.785,-0.555 -1.578,-1.117 -2.406,-1.707 -0.348,-0.25 -0.704,-0.504 -1.059,-0.758 -1.504,-1.078 -3.109,-2.231 -4.805,-3.442 -0.441,-0.32 -0.855,-0.617 -1.312,-0.941 -1.09,-0.773 -2.254,-1.594 -3.446,-2.426 -0.5,-0.351 -0.964,-0.683 -1.488,-1.047 -1.707,-1.187 -3.5,-2.421 -5.437,-3.726 -4.739,-3.195 -12.075,-8.281 -20.2659,-13.731 C 88.3281,468.727 82.4883,464.934 76.7852,461.43 68.2305,456.172 59.9766,451.566 53.7734,449.145 47.6758,446.762 35,443.438 23.8438,440.512 12.6914,437.586 3.0625,435.055 3.0625,434.258 2.76953,434.086 1.58203,433.148 0,432.023 V 365.41 c 2.35547,-1.078 4.76953,-2.094 7.30078,-2.984 17.78122,-6.25 37.70702,-5.922 54.76562,-14.891 17.5234,-9.211 36.4297,-24.418 54.4536,-33.637 19.152,-9.796 34.894,-18.668 48.82,-30.878 21.019,-18.434 31.637,-26.079 63.215,-9.926 18.828,9.629 28.918,27.918 50.402,36.5 31.488,12.578 35.785,15.644 51.617,45.664 13.625,25.832 26.973,39.644 56.149,48.969 34.175,10.921 41.636,12.601 74.035,-0.446 28.629,-11.527 64.125,-28.047 96.387,-15.988 29.613,11.066 44.679,28.215 80.218,30.34 26.793,1.597 51.657,9.734 77.821,-1.117 22.246,-9.223 42.168,-23.426 64.781,-33.637 26.125,-11.797 46.109,-11.953 74.609,-11.25 10.035,0.246 18.473,1.047 25.824,2.418 v 231.562 c -7.937,-0.707 -15.953,-1.472 -23.949,-2.246 -8.16,-0.785 -16.293,-1.562 -24.34,-2.308" /><path
         id="path20"
         style="fill:#b8e27f;fill-opacity:1;fill-rule:nonzero;stroke:none"
         d="m 854.574,884.496 c -28.5,0.703 -48.484,0.547 -74.609,-11.25 -22.613,-10.211 -42.535,-24.414 -64.781,-33.641 -26.164,-10.847 -51.028,-2.71 -77.821,-1.113 -35.539,2.125 -50.605,19.274 -80.218,30.34 -32.262,12.059 -67.758,-4.461 -96.387,-15.992 -32.399,-13.047 -39.86,-11.363 -74.035,-0.442 -29.176,9.325 -42.524,23.133 -56.149,48.969 -15.832,30.02 -20.129,33.086 -51.617,45.66 -21.484,8.582 -31.574,26.875 -50.402,36.504 -31.578,16.149 -42.196,8.508 -63.215,-9.926 -13.926,-12.21 -29.668,-21.082 -48.82,-30.878 C 98.4961,933.508 79.5898,918.297 62.0664,909.086 45.0078,900.121 25.082,900.449 7.30078,894.199 4.76953,893.309 2.35547,892.293 0,891.215 V 871.188 824.602 625.426 c 16.668,-3.77 33.2148,-6.36 50.8438,-7.422 4.7265,-0.289 9.5312,-0.465 14.4335,-0.527 14.711,-0.196 30.3321,0.644 47.4957,2.671 32.18,3.801 62.34,7.153 91.2,11.731 9.621,1.523 19.097,3.184 28.457,5.047 4.679,0.929 9.332,1.906 13.957,2.945 32.371,7.254 63.468,17.32 94.453,32.856 6.644,3.336 13.402,6.531 20.23,9.613 26.321,12.058 53.75,22.422 82.004,29.64 18.258,4.665 121.5,36.739 157.766,37.602 72.387,1.723 127.035,35.527 166.297,41.371 32.035,4.766 74.785,-8.449 113.261,-18.953 v 110.074 c -7.351,1.371 -15.789,2.172 -25.824,2.422" /><path
         id="path22"
         style="fill:#66686c;fill-opacity:1;fill-rule:nonzero;stroke:none"
         d="M 1098.08,873.629 V 664.934 h -16.13 v 208.695 h 16.13" /><path
         id="path24"
         style="fill:#66686c;fill-opacity:1;fill-rule:nonzero;stroke:none"
         d="M 1180.38,860.18 V 678.379 h 58.86 c 26.99,0 49.47,8.293 67.45,24.875 17.98,16.582 26.96,38.562 26.96,65.949 0,26.793 -8.86,48.652 -26.59,65.582 -17.73,16.934 -40.68,25.395 -68.87,25.395 z m -16.13,13.449 h 73.05 c 36.95,0 65.16,-9.711 84.63,-29.133 19.46,-19.418 29.2,-44.516 29.2,-75.293 0,-30.176 -9.63,-55.101 -28.9,-74.769 -19.27,-19.668 -46.64,-29.5 -82.09,-29.5 h -75.89 v 208.695" /><path
         id="path26"
         style="fill:#66686c;fill-opacity:1;fill-rule:nonzero;stroke:none"
         d="m 1501.2,750.531 -44.97,98.297 -44.82,-98.297 z m -40.39,124.59 96.48,-210.187 h -16.92 l -33.02,72.152 h -102.06 l -32.89,-72.152 h -16.93 l 96.47,210.187 h 8.87" /><path
         id="path28"
         style="fill:#66686c;fill-opacity:1;fill-rule:nonzero;stroke:none"
         d="M 1754.19,873.629 V 664.934 h -16.29 v 98.894 h -139.23 v -98.894 h -16.13 v 208.695 h 16.13 V 777.27 h 139.23 v 96.359 h 16.29" /><path
         id="path30"
         style="fill:#66686c;fill-opacity:1;fill-rule:nonzero;stroke:none"
         d="m 1904.77,677.184 c 25.99,0 47.92,8.886 65.8,26.664 17.89,17.777 26.82,39.558 26.82,65.355 0,25.895 -8.93,47.731 -26.82,65.508 -17.88,17.777 -39.81,26.668 -65.8,26.668 -26.09,0 -48.18,-8.891 -66.26,-26.668 -18.07,-17.777 -27.11,-39.613 -27.11,-65.508 0,-25.797 9.04,-47.578 27.11,-65.355 18.08,-17.778 40.17,-26.664 66.26,-26.664 z m -0.6,199.132 c 30.88,0 57.04,-10.382 78.5,-31.144 21.47,-20.77 32.2,-46.09 32.2,-75.969 0,-29.777 -10.73,-55.047 -32.2,-75.812 -21.46,-20.762 -47.62,-31.149 -78.5,-31.149 -30.77,0 -56.84,10.387 -78.2,31.149 -21.36,20.765 -32.05,46.035 -32.05,75.812 0,29.879 10.69,55.199 32.05,75.969 21.36,20.762 47.43,31.144 78.2,31.144" /><path
         id="path32"
         style="fill:#66686c;fill-opacity:1;fill-rule:nonzero;stroke:none"
         d="m 1255.98,527.719 v -17.625 c -25.29,13.441 -50.09,20.164 -74.39,20.164 -25.9,0 -47.56,-8.813 -64.98,-26.442 -17.43,-17.625 -26.14,-39.636 -26.14,-66.035 0,-26.687 8.76,-48.648 26.29,-65.879 17.53,-17.222 39.88,-25.836 67.07,-25.836 22.71,0 47.46,7.118 74.24,21.356 v -16.731 c -24.69,-13.043 -49.34,-19.566 -73.94,-19.566 -31.77,0 -58.24,10.184 -79.41,30.547 -21.16,20.371 -31.73,45.738 -31.73,76.109 0,30.578 10.8,56.125 32.41,76.645 21.61,20.515 47.36,30.773 77.24,30.773 23.5,0 47.94,-5.828 73.34,-17.48" /><path
         id="path34"
         style="fill:#66686c;fill-opacity:1;fill-rule:nonzero;stroke:none"
         d="m 1391.48,346.066 c 25.99,0 47.92,8.883 65.8,26.661 17.88,17.781 26.82,39.558 26.82,65.359 0,25.891 -8.94,47.727 -26.82,65.508 -17.88,17.777 -39.81,26.664 -65.8,26.664 -26.09,0 -48.18,-8.887 -66.26,-26.664 -18.07,-17.781 -27.11,-39.617 -27.11,-65.508 0,-25.801 9.04,-47.578 27.11,-65.359 18.08,-17.778 40.17,-26.661 66.26,-26.661 z m -0.6,199.133 c 30.88,0 57.04,-10.383 78.5,-31.144 21.47,-20.774 32.2,-46.094 32.2,-75.969 0,-29.785 -10.73,-55.051 -32.2,-75.82 -21.46,-20.762 -47.62,-31.141 -78.5,-31.141 -30.77,0 -56.84,10.379 -78.21,31.141 -21.35,20.769 -32.04,46.035 -32.04,75.82 0,29.875 10.69,55.195 32.04,75.969 21.37,20.761 47.44,31.144 78.21,31.144" /><path
         id="path36"
         style="fill:#66686c;fill-opacity:1;fill-rule:nonzero;stroke:none"
         d="M 1728.94,542.512 V 333.809 h -13.28 L 1557,516.215 V 333.809 h -16.13 v 208.703 h 13.66 l 158.28,-182.403 v 182.403 h 16.13" /><path
         id="path38"
         style="fill:#66686c;fill-opacity:1;fill-rule:nonzero;stroke:none"
         d="m 1875.2,532.051 v -17.778 c -18.13,10.661 -33.72,15.985 -46.76,15.985 -12.55,0 -23.03,-3.809 -31.45,-11.426 -8.42,-7.621 -12.62,-17.055 -12.62,-28.312 0,-8.071 2.49,-15.332 7.47,-21.809 4.97,-6.477 15.39,-12.695 31.22,-18.672 15.83,-5.976 27.39,-10.957 34.66,-14.941 7.27,-3.985 13.45,-9.766 18.53,-17.332 5.08,-7.571 7.62,-17.375 7.62,-29.426 0,-16.035 -5.88,-29.578 -17.63,-40.637 -11.76,-11.051 -26.1,-16.578 -43.03,-16.578 -17.32,0 -35.15,6.07 -53.48,18.223 v 18.972 c 20.22,-14.843 37.75,-22.254 52.58,-22.254 12.36,0 22.79,4 31.3,12.02 8.52,8.019 12.78,17.852 12.78,29.512 0,8.867 -2.64,16.855 -7.92,23.972 -5.28,7.129 -15.98,13.782 -32.1,19.973 -16.14,6.191 -27.66,11.184 -34.58,14.961 -6.94,3.777 -12.82,9.187 -17.65,16.199 -4.83,7.024 -7.25,16.059 -7.25,27.102 0,15.328 5.88,28.394 17.63,39.195 11.75,10.797 25.9,16.199 42.43,16.199 16.23,0 32.32,-4.383 48.25,-13.148" /><path
         id="path40"
         style="fill:#66686c;fill-opacity:1;fill-rule:nonzero;stroke:none"
         d="m 2034.74,542.512 v -13.449 h -97.69 v -83.504 h 95.16 v -13.594 h -95.16 v -84.707 h 100.09 v -13.449 h -116.22 v 208.703 h 113.82" /><path
         id="path42"
         style="fill:#66686c;fill-opacity:1;fill-rule:nonzero;stroke:none"
         d="m 2086.74,529.063 v -81.719 h 34.65 c 17.63,0 31.11,3.562 40.42,10.683 9.31,7.121 13.97,17.207 13.97,30.254 0,12.848 -4.74,22.856 -14.2,30.032 -9.46,7.167 -23.06,10.75 -40.78,10.75 z m -16.14,13.449 h 53.49 c 22.4,0 39.53,-4.856 51.39,-14.567 11.84,-9.711 17.77,-22.832 17.77,-39.371 0,-24.101 -13.24,-41.023 -39.74,-50.793 6.88,-3.277 16.14,-13.883 27.8,-31.812 l 47.2,-72.16 h -19.1 l -36.35,57.199 c -12.15,19.129 -21.61,31.062 -28.37,35.789 -6.78,4.734 -16.68,7.101 -29.72,7.101 h -28.23 V 333.809 h -16.14 v 208.703" /><path
         id="path44"
         style="fill:#66686c;fill-opacity:1;fill-rule:nonzero;stroke:none"
         d="m 2393.58,542.512 -87.45,-210.793 h -4.76 l -87.8,210.793 h 16.35 l 73.96,-176.582 73.42,176.582 h 16.28" /><path
         id="path46"
         style="fill:#66686c;fill-opacity:1;fill-rule:nonzero;stroke:none"
         d="m 2523.03,419.414 -44.97,98.297 -44.82,-98.297 z m -40.39,124.59 96.48,-210.195 h -16.92 l -33.02,72.16 h -102.06 l -32.89,-72.16 h -16.94 l 96.48,210.195 h 8.87" /><path
         id="path48"
         style="fill:#66686c;fill-opacity:1;fill-rule:nonzero;stroke:none"
         d="M 2723.57,542.512 V 529.063 H 2645.3 V 333.809 h -16.29 v 195.254 h -78.28 v 13.449 h 172.84" /><path
         id="path50"
         style="fill:#66686c;fill-opacity:1;fill-rule:nonzero;stroke:none"
         d="M 2764.96,542.512 V 333.809 h -16.13 v 208.703 h 16.13" /><path
         id="path52"
         style="fill:#66686c;fill-opacity:1;fill-rule:nonzero;stroke:none"
         d="m 2914.95,346.066 c 25.99,0 47.92,8.883 65.8,26.661 17.88,17.781 26.82,39.558 26.82,65.359 0,25.891 -8.94,47.727 -26.82,65.508 -17.88,17.777 -39.81,26.664 -65.8,26.664 -26.09,0 -48.18,-8.887 -66.26,-26.664 -18.08,-17.781 -27.11,-39.617 -27.11,-65.508 0,-25.801 9.03,-47.578 27.11,-65.359 18.08,-17.778 40.17,-26.661 66.26,-26.661 z m -0.61,199.133 c 30.88,0 57.04,-10.383 78.51,-31.144 21.46,-20.774 32.2,-46.094 32.2,-75.969 0,-29.785 -10.74,-55.051 -32.2,-75.82 -21.47,-20.762 -47.63,-31.141 -78.51,-31.141 -30.77,0 -56.83,10.379 -78.2,31.141 -21.36,20.769 -32.04,46.035 -32.04,75.82 0,29.875 10.68,55.195 32.04,75.969 21.37,20.761 47.43,31.144 78.2,31.144" /><path
         id="path54"
         style="fill:#66686c;fill-opacity:1;fill-rule:nonzero;stroke:none"
         d="M 3252.41,542.512 V 333.809 h -13.28 L 3080.47,516.215 V 333.809 h -16.14 V 542.512 H 3078 l 158.28,-182.403 v 182.403 h 16.13" /><path
         id="path56"
         style="fill:#66686c;fill-opacity:1;fill-rule:nonzero;stroke:none"
         d="M 1098.38,211.387 V 16.1328 h 103.23 V 2.6875 H 1082.24 V 211.387 h 16.14" /><path
         id="path58"
         style="fill:#66686c;fill-opacity:1;fill-rule:nonzero;stroke:none"
         d="m 1339.94,211.387 v -13.446 h -97.7 v -83.507 h 95.16 V 100.84 h -95.16 V 16.1328 h 100.09 V 2.6875 H 1226.11 V 211.387 h 113.83" /><path
         id="path60"
         style="fill:#66686c;fill-opacity:1;fill-rule:nonzero;stroke:none"
         d="m 1498.52,88.293 -44.97,98.289 -44.81,-98.289 z m -40.39,124.59 96.49,-210.1955 h -16.93 l -33.01,72.1563 H 1402.62 L 1369.73,2.6875 h -16.94 l 96.48,210.1955 h 8.86" /><path
         id="path62"
         style="fill:#66686c;fill-opacity:1;fill-rule:nonzero;stroke:none"
         d="m 1739.27,196.301 v -18.235 c -24.71,14.043 -49.36,21.067 -73.95,21.067 -26.4,0 -48.36,-8.762 -65.89,-26.289 -17.53,-17.531 -26.29,-39.492 -26.29,-65.879 0,-26.3986 8.67,-48.3322 26,-65.8127 17.32,-17.4687 40.88,-26.2109 70.66,-26.2109 21.51,0 40.58,4.2774 57.21,12.8399 v 56.3203 h -44.06 v 13.4492 h 60.35 V 17.6289 C 1718.7,5.87891 1694,0 1669.2,0 c -32.37,0 -59.38,10.2539 -81.04,30.7734 -21.67,20.5157 -32.5,46.1133 -32.5,76.7856 0,30.476 10.64,55.847 31.9,76.113 21.27,20.266 47.98,30.398 80.14,30.398 21.92,0 45.77,-5.925 71.57,-17.769" /><path
         id="path64"
         style="fill:#66686c;fill-opacity:1;fill-rule:nonzero;stroke:none"
         d="m 1938.54,211.387 h 16.15 V 97.5508 c 0,-31.1719 -8.13,-55.2266 -24.36,-72.1602 C 1914.1,8.46875 1893.08,0 1867.29,0 c -25.7,0 -46.66,8.36719 -62.9,25.0977 -16.23,16.7265 -24.34,39.6367 -24.34,68.7187 V 211.387 h 16.28 V 94.4141 c 0,-24.9024 6.6,-44.3633 19.79,-58.4063 13.19,-14.043 30.26,-21.0664 51.17,-21.0664 21.12,0 38.27,7.0899 51.47,21.2891 13.19,14.1914 19.78,34.3281 19.78,60.4218 V 211.387" /><path
         id="path66"
         style="fill:#66686c;fill-opacity:1;fill-rule:nonzero;stroke:none"
         d="m 2112.43,211.387 v -13.446 h -97.7 v -83.507 h 95.16 V 100.84 h -95.16 V 16.1328 h 100.09 V 2.6875 H 1998.6 V 211.387 h 113.83" /></g></g></svg>